<?xml version="1.0" encoding="UTF-8"?>
<svg width="56px" height="64px" viewBox="0 0 56 64" version="1.1" xmlns="http://www.w3.org/2000/svg" xmlns:xlink="http://www.w3.org/1999/xlink">
    <!-- Generator: Sketch 52.2 (67145) - http://www.bohemiancoding.com/sketch -->
    <title>模型训练 logo-黑</title>
    <desc>Created with Sketch.</desc>
    <g id="Page-1" stroke="none" stroke-width="1" fill="none" fill-rule="evenodd">
        <g id="登录" transform="translate(-451.000000, -94.000000)">
            <g id="Group-5" transform="translate(451.000000, 94.000000)">
                <g id="模型训练-logo-黑" transform="translate(-0.000000, 0.000000)">
                    <path d="M34.5290382,21.3574252 C32.676662,21.6465274 31.1680675,23.3771253 31.2044679,25.2522743 C31.172112,30.496267 31.1963789,35.7402597 31.2004234,40.9802372 C31.4269148,43.6865551 28.5553273,46.0033879 25.9547207,45.782546 C23.1154892,45.7865612 20.2762576,45.7504235 17.437026,45.782546 C15.7990078,45.7664847 14.2378349,46.8466027 13.659473,48.3603739 C13.3035579,49.3320785 13.4127591,50.3881047 13.3884921,51.3999624 C13.4248925,54.090219 13.3601807,56.7804756 13.4127591,59.4707322 C13.3601807,61.5827844 15.2732242,63.4699794 17.3965812,63.4298262 C20.6604841,63.4539181 23.924387,63.4539181 27.18829,63.4298262 C29.1660453,63.4619487 31.0103324,61.8277182 31.1518895,59.8642324 C31.3015356,56.3749294 31.0669553,52.8735806 31.2530017,49.3842776 C31.9284315,47.292302 34.19739,45.7022398 36.4178147,45.7705 C41.5664497,45.7624694 46.7150846,45.7945919 51.8637196,45.7624694 C53.9870766,45.8026225 55.9001201,43.9154276 55.8515862,41.8033754 C55.8718086,36.290357 55.8718086,30.769308 55.8515862,25.2522743 C55.916298,22.9595332 53.6958734,21.0803689 51.4390483,21.2811343 C45.8050745,21.3333333 40.1589674,21.1767363 34.5290382,21.3574252 Z" id="Path" fill="#FFFFFF" fill-rule="nonzero"></path>
                    <g id="Group-3" fill="#1890FF">
                        <path d="M28.4987045,-3.41814119e-14 L39.5563385,-3.41814119e-14 C41.3763587,0.453729861 42.9698875,2.01970013 42.9051757,3.9751553 C42.9415761,7.21149381 42.9415761,10.455863 42.9051757,13.6922015 C42.9456206,15.6637179 41.2914244,17.4866679 39.3096246,17.6191731 C35.8232747,17.8199385 32.312658,17.4786373 28.8343971,17.7677395 C26.8606863,18.4222348 24.8869755,20.209047 25.1175113,22.4536044 C25.1336893,27.2880356 25.1134669,32.1224669 25.1377338,36.9568982 C25.1296448,38.101261 25.1660452,39.3540372 24.4703931,40.3337725 C23.6776732,41.5865487 22.1812121,42.2330134 20.7171069,42.1607378 C15.2974911,42.1486919 9.87787538,42.1848297 4.45825962,42.1446766 C2.32681374,42.1888449 0.421859184,40.3056653 0.474437591,38.1895979 C0.438037146,32.6725641 0.442081668,27.1555304 0.470393069,21.6425121 C0.417814726,19.5023527 2.36725858,17.631219 4.5067935,17.6794027 C9.89405334,17.6111425 15.2853577,17.7396323 20.6726175,17.631219 C22.9253981,17.2818872 25.3480473,15.3424932 25.1336893,12.8811092 C25.1741342,9.78530644 25.0366215,6.68548838 25.1741342,3.58968567 C25.2671575,1.77878163 26.8202414,0.433653283 28.4987045,-3.55271368e-14 Z" id="Path"></path>
                        <path d="M34.5290382,21.3574252 C40.1589674,21.1767363 45.8050746,21.3333333 51.4390483,21.2811343 C53.6958733,21.0803689 55.916298,22.9595333 55.8515862,25.2522743 C55.8718086,30.769308 55.8718086,36.290357 55.8515862,41.8033754 C55.9001201,43.9154276 53.9870766,45.8026225 51.8637196,45.7624694 C46.7150846,45.7945919 41.5664497,45.7624694 36.4178147,45.7705 C34.19739,45.7022398 31.9284315,47.2923019 31.2530017,49.3842776 C31.0669553,52.8735806 31.3015356,56.3749294 31.1518895,59.8642324 C31.0103324,61.8277182 29.1660452,63.4619487 27.18829,63.4298262 C23.924387,63.4539181 20.6604841,63.4539181 17.3965812,63.4298262 C15.2732243,63.4699793 13.3601807,61.5827843 13.4127591,59.4707322 C13.3601807,56.7804756 13.4248925,54.090219 13.3884921,51.3999624 C13.4127591,50.3881047 13.3035579,49.3320785 13.659473,48.3603739 C14.2378349,46.8466027 15.7990078,45.7664847 17.437026,45.782546 C20.2762575,45.7504235 23.1154891,45.7865612 25.9547207,45.782546 C28.5553274,46.0033879 31.4269148,43.686555 31.2004234,40.9802372 C31.1963789,35.7402598 31.172112,30.496267 31.2044679,25.2522743 C31.1680675,23.3771253 32.676662,21.6465274 34.5290382,21.3574252 Z" id="Path"></path>
                    </g>
                </g>
            </g>
        </g>
    </g>
</svg>